<svg xmlns="http://www.w3.org/2000/svg" xmlns:xlink="http://www.w3.org/1999/xlink" x="0px" y="0px"
	 viewBox="0 0 2500 1020" style="enable-background:new 0 0 2500 1020;" xml:space="preserve">
<path d="M2479.7,9.2L2479.7,9.2c-20.8-8.1-42.3-9.2-63.9-5.6c-15.8,2.7-31.4,6.6-41,22.3c-4.3-8.8-11.5-13.3-19.6-16.5
	c-18.8-7.5-38.4-9.2-58.3-6.5c-18,2.4-35.8,5.6-47.1,22.9c-5.7-11.1-15.7-15.5-26.1-18.7c-22.7-6.9-45.6-7.1-68.5-1.1
	c-12,3.1-23.4,7.6-30.1,20.1c-5.9-11.2-15.9-15.8-26.5-19c-22.7-6.9-45.6-7-68.5-1c-12,3.1-23.4,7.7-30.1,20.1
	c-5.8-11.2-15.6-15.8-26-18.9c-22.2-6.8-44.7-7.2-67.2-1.6c-12.7,3.1-24.6,7.7-31.9,20.5c-4.3-8.9-11.5-13.4-19.6-16.6
	c-20.9-8.3-42.6-9.5-64.5-5.8c-15.8,2.7-31.4,6.6-41,22.3c-4.3-8.9-11.5-13.3-19.6-16.5c-18.6-7.4-38-9.1-57.7-6.6
	c-18.2,2.3-36.2,5.5-47.7,22.9c-5.7-11.1-15.7-15.5-26.1-18.7c-22.7-6.9-45.6-7-68.5-1.1c-12,3.1-23.4,7.6-29.9,19.7
	c-7.6-10.4-13.6-14.7-26.8-18.7c-22.7-6.8-45.6-7-68.5-1c-12,3.1-23.3,7.7-30,20.1c-5.8-11.2-15.6-15.7-26-19
	c-21.8-6.7-43.9-7.1-66-1.8c-13.1,3.1-25.5,7.5-33.1,20.8c-4.3-8.9-11.5-13.4-19.6-16.6c-19.5-7.7-39.7-9.3-60.2-6.4
	c-17.4,2.5-34.5,6-45.4,22.7c-4.2-8.8-11.5-13.4-19.6-16.4c-26.7-10-53.7-10.2-80.8-1.6c-9.9,3.1-18.7,7.9-24.2,18.2
	c-6.1-11.3-16.2-15.9-27.1-19.2C950.2,0,927.3-0.1,904.4,6c-11.7,3.1-22.9,7.7-29.4,19.9c-6-11.3-16-15.8-26.6-19.1
	c-22.7-6.9-45.6-7-68.5-1C768,9,756.6,13.6,749.9,26c-4.5-9.1-11.9-13.6-20.2-16.8c-21-8.2-42.6-9.3-64.5-5.5
	c-15.6,2.7-31,6.7-40.4,22.2c-4.3-8.8-11.5-13.3-19.6-16.5c-19-7.6-38.8-9.2-58.9-6.5c-17.8,2.4-35.4,5.8-46.6,22.9
	c-4.3-8.8-11.5-13.3-19.6-16.4c-21.8-8.5-44.2-9.5-67-5.2c-14.9,2.8-29.2,6.9-38.2,21.6c-5.8-11-15.8-15.6-26.4-18.8
	c-22.9-6.9-46-7-69-0.9c-11.7,3.1-22.9,7.7-29.4,19.9c-6-11.3-16-15.9-26.6-19.1c-22.3-6.7-44.7-7-67.2-1.3
	c-12.4,3.1-24.2,7.7-31.3,20.5c-4.2-9.1-11.4-13.6-19.5-16.7C77.7-1,49.8-0.8,22,8.4c-9.3,3.1-17.3,8.3-22,17.4V738v257.5v24.5h2500
	v-24.5V738V25.9C2495.5,17.4,2488.3,12.5,2479.7,9.2z"/>
</svg>